<svg width="570" height="69" viewBox="0 0 570 69" fill="none" xmlns="http://www.w3.org/2000/svg">
<path d="M72.736 68.32C68.128 68.32 64.544 67.616 61.984 66.208C59.424 64.8 57.6 62.624 56.512 59.68C55.488 56.672 54.976 52.672 54.976 47.68V10.72L30.976 64H29.056L4.096 9.76V64H0.256V0.639997H9.376L32.416 50.56L54.976 0.639997H63.616V47.68C63.616 53.632 64.352 58.24 65.824 61.504C67.36 64.768 69.664 66.4 72.736 66.4V68.32ZM97.0113 64.96C92.6593 64.96 88.9793 63.936 85.9713 61.888C82.9633 59.776 80.6913 56.96 79.1553 53.44C77.6193 49.856 76.8513 45.856 76.8513 41.44C76.8513 37.088 77.6193 33.12 79.1553 29.536C80.6913 25.952 82.8993 23.136 85.7793 21.088C88.7233 18.976 92.1473 17.92 96.0513 17.92C102.515 17.92 107.315 19.744 110.451 23.392C113.651 26.976 115.251 32.192 115.251 39.04L115.059 42.88H85.9713C85.9713 48.256 87.1233 52.64 89.4273 56.032C91.7313 59.424 94.8993 61.12 98.9313 61.12C101.939 61.12 104.467 60.48 106.515 59.2C108.627 57.92 110.579 56 112.371 53.44L114.291 54.88C112.179 58.4 109.715 60.96 106.899 62.56C104.083 64.16 100.787 64.96 97.0113 64.96ZM106.131 39.04C106.131 33.408 105.299 29.12 103.635 26.176C101.971 23.232 99.4433 21.76 96.0513 21.76C94.1313 21.76 92.4033 22.528 90.8673 24.064C89.3313 25.536 88.1153 27.584 87.2193 30.208C86.3873 32.832 85.9713 35.776 85.9713 39.04H106.131ZM126.702 12.16C126.702 8.896 126.254 6.496 125.358 4.96C124.462 3.36 122.67 2.56 119.982 2.56H118.062V0.639997H126.702C129.07 0.639997 130.83 0.959997 131.982 1.6C133.198 2.176 134.062 3.264 134.574 4.86399C135.086 6.464 135.342 8.896 135.342 12.16V64H126.702V12.16ZM160.32 64.96C158.272 64.96 156.192 64.544 154.08 63.712C151.968 62.816 150.144 61.376 148.608 59.392C147.136 57.408 146.4 54.784 146.4 51.52C146.4 46.656 148.64 43.2 153.12 41.152C157.664 39.104 163.584 38.08 170.88 38.08H173.76C173.76 31.808 172.896 27.52 171.168 25.216C169.44 22.912 166.944 21.76 163.68 21.76C160.8 21.76 158.496 22.368 156.768 23.584C155.04 24.8 153.824 26.912 153.12 29.92H148.8C148.8 27.744 148.928 26.048 149.184 24.832C149.44 23.552 150.112 22.368 151.2 21.28C152.352 20.128 154.24 19.296 156.864 18.784C159.552 18.208 162.464 17.92 165.6 17.92C170.784 17.92 174.88 19.328 177.888 22.144C180.896 24.896 182.4 30.208 182.4 38.08V64H177.6L174.24 59.68H173.76C172.608 61.152 170.912 62.4 168.672 63.424C166.432 64.448 163.648 64.96 160.32 64.96ZM164.64 60.64C166.752 60.64 168.512 60.128 169.92 59.104C171.328 58.08 172.608 56.672 173.76 54.88V41.92H170.88C166.144 41.92 162.4 42.816 159.648 44.608C156.896 46.336 155.52 48.64 155.52 51.52C155.52 54.464 156.384 56.736 158.112 58.336C159.904 59.872 162.08 60.64 164.64 60.64ZM197.227 30.4C197.227 27.136 196.779 24.736 195.883 23.2C194.987 21.6 193.195 20.8 190.507 20.8H188.587V18.88H197.227C199.595 18.88 201.387 19.2 202.603 19.84C203.883 20.48 204.811 21.44 205.387 22.72H205.867C207.211 21.376 208.939 20.256 211.051 19.36C213.227 18.4 215.659 17.92 218.347 17.92C223.147 17.92 227.051 19.2 230.059 21.76C233.131 24.32 234.667 28.8 234.667 35.2V64H226.027V35.2C226.027 30.72 225.003 27.456 222.955 25.408C220.971 23.296 218.475 22.24 215.467 22.24C212.075 22.24 208.875 23.936 205.867 27.328V64H197.227V30.4ZM253.094 13.12C251.622 13.12 250.342 12.512 249.254 11.296C248.23 10.08 247.718 8.64 247.718 6.976C247.718 5.632 248.102 4.576 248.87 3.808C249.702 3.04 250.79 2.65599 252.134 2.65599C253.606 2.65599 254.854 3.264 255.878 4.48C256.966 5.696 257.51 7.136 257.51 8.8C257.51 10.144 257.094 11.2 256.262 11.968C255.494 12.736 254.438 13.12 253.094 13.12ZM249.446 30.4C249.446 27.136 248.998 24.736 248.102 23.2C247.206 21.6 245.414 20.8 242.726 20.8H240.806V18.88H249.446C251.814 18.88 253.574 19.2 254.726 19.84C255.942 20.416 256.806 21.504 257.318 23.104C257.83 24.704 258.086 27.136 258.086 30.4V64H249.446V30.4ZM288.047 64.96C283.247 64.96 279.311 63.68 276.239 61.12C273.231 58.56 271.727 54.08 271.727 47.68V30.4C271.727 27.136 271.279 24.736 270.383 23.2C269.487 21.6 267.695 20.8 265.007 20.8H264.047V18.88H271.727C274.095 18.88 275.855 19.2 277.007 19.84C278.223 20.416 279.087 21.504 279.599 23.104C280.111 24.704 280.367 27.136 280.367 30.4V47.68C280.367 52.16 281.359 55.456 283.343 57.568C285.391 59.616 287.919 60.64 290.927 60.64C294.319 60.64 297.519 58.944 300.527 55.552V18.88H309.167V64H304.367L301.007 60.16H300.527C299.183 61.504 297.423 62.656 295.247 63.616C293.135 64.512 290.735 64.96 288.047 64.96ZM338.078 64.96C330.718 64.96 325.758 63.68 323.198 61.12C322.11 60.032 321.438 58.816 321.182 57.472C320.926 56.064 320.798 53.92 320.798 51.04H322.718C323.294 54.24 324.67 56.736 326.846 58.528C329.086 60.256 332.19 61.12 336.158 61.12C339.678 61.12 342.302 60.512 344.03 59.296C345.822 58.08 346.718 56.448 346.718 54.4C346.718 52.544 346.014 50.944 344.606 49.6C343.262 48.256 341.086 46.976 338.078 45.76L332.318 43.36C328.478 41.824 325.598 40.032 323.678 37.984C321.758 35.936 320.798 33.408 320.798 30.4C320.798 26.496 322.27 23.456 325.214 21.28C328.158 19.04 331.966 17.92 336.638 17.92C343.678 17.92 348.478 19.2 351.038 21.76C352.126 22.848 352.798 24.064 353.054 25.408C353.31 26.752 353.438 28.896 353.438 31.84H351.518C351.006 28.64 349.662 26.176 347.486 24.448C345.31 22.656 342.334 21.76 338.558 21.76C335.55 21.76 333.182 22.4 331.454 23.68C329.79 24.896 328.958 26.496 328.958 28.48C328.958 31.808 331.518 34.528 336.638 36.64L342.398 39.04C346.75 40.832 349.918 42.752 351.902 44.8C353.886 46.784 354.878 49.344 354.878 52.48C354.878 56.384 353.31 59.456 350.174 61.696C347.038 63.872 343.006 64.96 338.078 64.96ZM383.418 64.96C379.066 64.96 375.386 63.936 372.378 61.888C369.37 59.776 367.098 56.96 365.562 53.44C364.026 49.856 363.258 45.856 363.258 41.44C363.258 37.088 364.026 33.12 365.562 29.536C367.098 25.952 369.306 23.136 372.186 21.088C375.13 18.976 378.554 17.92 382.458 17.92C388.922 17.92 393.722 19.744 396.858 23.392C400.058 26.976 401.658 32.192 401.658 39.04L401.466 42.88H372.378C372.378 48.256 373.53 52.64 375.834 56.032C378.138 59.424 381.306 61.12 385.338 61.12C388.346 61.12 390.874 60.48 392.922 59.2C395.034 57.92 396.986 56 398.778 53.44L400.698 54.88C398.586 58.4 396.122 60.96 393.306 62.56C390.49 64.16 387.194 64.96 383.418 64.96ZM392.538 39.04C392.538 33.408 391.706 29.12 390.042 26.176C388.378 23.232 385.85 21.76 382.458 21.76C380.538 21.76 378.81 22.528 377.274 24.064C375.738 25.536 374.522 27.584 373.626 30.208C372.794 32.832 372.378 35.776 372.378 39.04H392.538ZM416.373 65.344C414.965 65.344 413.749 64.832 412.725 63.808C411.701 62.784 411.189 61.536 411.189 60.064C411.189 58.656 411.701 57.44 412.725 56.416C413.749 55.392 414.965 54.88 416.373 54.88C417.845 54.88 419.061 55.392 420.021 56.416C421.045 57.44 421.557 58.656 421.557 60.064C421.557 61.536 421.045 62.784 420.021 63.808C418.997 64.832 417.781 65.344 416.373 65.344ZM448.698 64.96C443.13 64.96 438.842 62.752 435.834 58.336C432.89 53.92 431.418 48.288 431.418 41.44C431.418 34.592 432.954 28.96 436.026 24.544C439.162 20.128 443.706 17.92 449.658 17.92C452.09 17.92 454.234 18.176 456.09 18.688C457.946 19.2 459.802 19.904 461.658 20.8V12.16C461.658 8.896 461.21 6.496 460.314 4.96C459.418 3.36 457.626 2.56 454.938 2.56H453.018V0.639997H461.658C464.026 0.639997 465.786 0.959997 466.938 1.6C468.154 2.176 469.018 3.264 469.53 4.86399C470.042 6.464 470.298 8.896 470.298 12.16V64H465.498L462.138 59.68H461.658C460.25 61.28 458.586 62.56 456.666 63.52C454.81 64.48 452.154 64.96 448.698 64.96ZM451.578 61.12C454.202 61.12 456.186 60.64 457.53 59.68C458.874 58.72 460.25 57.28 461.658 55.36V24.64C459.738 23.744 458.074 23.04 456.666 22.528C455.258 22.016 453.882 21.76 452.538 21.76C448.442 21.76 445.402 23.552 443.418 27.136C441.498 30.72 440.538 35.488 440.538 41.44C440.538 47.328 441.466 52.096 443.322 55.744C445.178 59.328 447.93 61.12 451.578 61.12ZM501.73 64.96C497.378 64.96 493.698 63.936 490.69 61.888C487.682 59.776 485.41 56.96 483.874 53.44C482.338 49.856 481.57 45.856 481.57 41.44C481.57 37.088 482.338 33.12 483.874 29.536C485.41 25.952 487.618 23.136 490.498 21.088C493.442 18.976 496.866 17.92 500.77 17.92C507.234 17.92 512.034 19.744 515.17 23.392C518.37 26.976 519.97 32.192 519.97 39.04L519.778 42.88H490.69C490.69 48.256 491.842 52.64 494.146 56.032C496.45 59.424 499.618 61.12 503.65 61.12C506.658 61.12 509.186 60.48 511.234 59.2C513.346 57.92 515.298 56 517.09 53.44L519.01 54.88C516.898 58.4 514.434 60.96 511.618 62.56C508.802 64.16 505.506 64.96 501.73 64.96ZM510.85 39.04C510.85 33.408 510.018 29.12 508.354 26.176C506.69 23.232 504.162 21.76 500.77 21.76C498.85 21.76 497.122 22.528 495.586 24.064C494.05 25.536 492.834 27.584 491.938 30.208C491.106 32.832 490.69 35.776 490.69 39.04H510.85ZM533.16 29.92C531.624 26.336 530.152 23.84 528.744 22.432C527.336 20.96 525.48 20.16 523.176 20.032V18.112C523.496 18.112 523.944 18.08 524.52 18.016C525.16 17.952 525.8 17.92 526.44 17.92C529.832 17.92 532.904 18.784 535.656 20.512C538.408 22.176 540.776 25.312 542.76 29.92L551.4 50.56L564.84 18.88H569.64L549.96 64.96H548.04L533.16 29.92Z" fill="#ddd"/>
</svg>
